<svg width="51" height="51" viewBox="0 0 51 51" fill="none" xmlns="http://www.w3.org/2000/svg">
<g id="facebook" clip-path="url(#clip0_1_2520)">
<g id="Group">
<path id="Vector" d="M47.3503 50.029C48.8741 50.029 50.1099 48.7935 50.1099 47.2694V2.78838C50.1099 1.26416 48.8741 0.0288086 47.3503 0.0288086H2.86943C1.34502 0.0288086 0.109863 1.26416 0.109863 2.78838V47.2694C0.109863 48.7935 1.34502 50.029 2.86943 50.029H47.3503Z" fill="#395185"/>
<path id="Vector_2" d="M34.6089 50.029V30.6663H41.1084L42.0814 23.1204H34.6089V18.3024C34.6089 16.1177 35.2158 14.6288 38.3488 14.6288L42.3447 14.627V7.87803C41.6533 7.78603 39.2814 7.58057 36.522 7.58057C30.7607 7.58057 26.8166 11.0972 26.8166 17.5554V23.1204H20.3005V30.6663H26.8166V50.029H34.6089Z" fill="white"/>
</g>
</g>
<defs>
<clipPath id="clip0_1_2520">
<rect width="50" height="50" fill="white" transform="translate(0.109863 0.0288086)"/>
</clipPath>
</defs>
</svg>
