<svg width="229" height="25" viewBox="0 0 229 25" fill="none" xmlns="http://www.w3.org/2000/svg">
<path d="M24.1677 7.62L23.2677 7.35C23.3277 7.17 23.3577 6.99 23.3577 6.81C23.3577 6.36 23.0727 5.955 22.5027 5.595C21.9627 5.235 21.2577 4.935 20.3877 4.695C19.5477 4.425 18.6177 4.23 17.5977 4.11C16.6077 3.99 15.6627 3.93 14.7627 3.93C13.6527 3.93 12.5427 4.095 11.4327 4.425C10.3527 4.725 9.37768 5.205 8.50768 5.865C7.66768 6.525 6.97768 7.38 6.43768 8.43C5.92768 9.48 5.67268 10.755 5.67268 12.255C5.67268 13.725 5.92768 15 6.43768 16.08C6.97768 17.13 7.66768 17.985 8.50768 18.645C9.37768 19.305 10.3527 19.8 11.4327 20.13C12.5427 20.43 13.6527 20.58 14.7627 20.58C16.4727 20.58 18.0027 20.445 19.3527 20.175C20.7327 19.875 21.9027 19.56 22.8627 19.23V15.36H17.1027C16.6827 15.36 16.3677 15.45 16.1577 15.63C15.9477 15.81 15.8127 16.2 15.7527 16.8H14.9427V11.04H15.7527C15.8127 11.55 15.9477 11.88 16.1577 12.03C16.3677 12.15 16.6827 12.21 17.1027 12.21H28.3527V13.02C27.7527 13.11 27.3777 13.215 27.2277 13.335C27.0777 13.455 27.0027 13.71 27.0027 14.1V19.185C27.0027 19.485 27.0927 19.68 27.2727 19.77C27.4527 19.86 27.6627 19.965 27.9027 20.085V20.805C26.9127 21.495 25.8627 22.065 24.7527 22.515C23.6727 22.965 22.5627 23.325 21.4227 23.595C20.3127 23.835 19.1877 23.985 18.0477 24.045C16.9377 24.105 15.8427 24.135 14.7627 24.135C12.6627 24.135 10.7427 23.88 9.00268 23.37C7.29268 22.83 5.82268 22.05 4.59268 21.03C3.36268 19.98 2.40268 18.72 1.71268 17.25C1.05268 15.75 0.722676 14.055 0.722676 12.165C0.722676 10.275 1.05268 8.595 1.71268 7.125C2.40268 5.625 3.36268 4.35 4.59268 3.3C5.82268 2.25 7.29268 1.455 9.00268 0.914999C10.7427 0.345 12.6627 0.0599998 14.7627 0.0599998C16.0827 0.0599998 17.3427 0.149999 18.5427 0.329999C19.7427 0.509998 20.8077 0.719998 21.7377 0.959999C22.6677 1.17 23.4327 1.38 24.0327 1.59C24.6627 1.77 25.0527 1.86 25.2027 1.86C25.4727 1.86 25.6827 1.8 25.8327 1.68C25.9827 1.56 26.1327 1.455 26.2827 1.365L26.8227 1.68L24.1677 7.62ZM163.458 1.95C163.458 1.41 163.128 1.14 162.468 1.14V0.329999H169.398V1.14C169.188 1.14 168.993 1.215 168.813 1.365C168.663 1.485 168.588 1.68 168.588 1.95V22.38C168.588 22.65 168.663 22.86 168.813 23.01C168.993 23.13 169.188 23.19 169.398 23.19V24H162.468V23.19C163.128 23.19 163.458 22.92 163.458 22.38V13.92H148.968V22.38C148.968 22.65 149.043 22.86 149.193 23.01C149.373 23.13 149.568 23.19 149.778 23.19V24H142.983V23.19C143.553 23.19 143.838 22.92 143.838 22.38V1.95C143.838 1.41 143.553 1.14 142.983 1.14V0.329999H149.778V1.14C149.568 1.14 149.373 1.215 149.193 1.365C149.043 1.485 148.968 1.68 148.968 1.95V9.6H163.458V1.95Z" fill="#5D89FB"/>
<path d="M46.9233 15.72L43.2783 8.16L40.0833 15.72H46.9233ZM31.8933 23.19C32.2533 23.13 32.5383 22.965 32.7483 22.695C32.9883 22.395 33.1683 22.125 33.2883 21.885L39.9933 7.26C40.1733 6.84 40.3083 6.51 40.3983 6.27C40.5183 6 40.5783 5.745 40.5783 5.505C40.5783 5.325 40.5333 5.22 40.4433 5.19C40.3833 5.13 40.3083 5.07 40.2183 5.01V4.2H47.0133V5.01C46.9233 5.07 46.8183 5.115 46.6983 5.145C46.6083 5.175 46.5633 5.295 46.5633 5.505C46.5633 5.685 46.6233 5.91 46.7433 6.18C46.8933 6.42 47.0433 6.705 47.1933 7.035L54.4833 22.335C54.6333 22.605 54.7983 22.8 54.9783 22.92C55.1583 23.04 55.3533 23.13 55.5633 23.19V24H49.1733V23.325C49.3233 23.325 49.4733 23.28 49.6233 23.19C49.8033 23.1 49.8933 22.935 49.8933 22.695C49.8933 22.515 49.8633 22.35 49.8033 22.2C49.7433 22.05 49.6683 21.855 49.5783 21.615L48.3633 19.05H38.7333L37.4733 21.48C37.3533 21.72 37.2483 21.945 37.1583 22.155C37.0983 22.335 37.0683 22.5 37.0683 22.65C37.0683 22.89 37.1433 23.04 37.2933 23.1C37.4433 23.16 37.6533 23.19 37.9233 23.19V24H31.8933V23.19ZM60.4081 23.19C60.5581 23.16 60.6781 23.1 60.7681 23.01C60.8881 22.92 60.9481 22.71 60.9481 22.38V5.91C60.9481 5.49 60.9031 5.235 60.8131 5.145C60.7531 5.055 60.6181 5.01 60.4081 5.01V4.2H66.6631V5.01C66.3631 5.01 66.2131 5.145 66.2131 5.415C66.2131 5.535 66.2581 5.7 66.3481 5.91C66.4681 6.09 66.6331 6.36 66.8431 6.72L72.3331 16.845L77.8681 6.765C78.0781 6.405 78.2431 6.12 78.3631 5.91C78.4831 5.67 78.5431 5.505 78.5431 5.415C78.5431 5.145 78.4231 5.01 78.1831 5.01V4.2H84.5281V5.01C84.3781 5.01 84.2281 5.055 84.0781 5.145C83.9581 5.205 83.8981 5.355 83.8981 5.595V22.515C83.8981 22.755 83.9581 22.935 84.0781 23.055C84.2281 23.145 84.3781 23.19 84.5281 23.19V24H79.3081V23.19C79.9381 23.19 80.2081 22.965 80.1181 22.515V9.87H80.0281L72.3781 24H72.0181L64.7731 9.87H64.8181H64.7281V22.515C64.7281 22.965 64.9831 23.19 65.4931 23.19V24H60.4081V23.19ZM109.759 8.385C109.759 7.815 109.294 7.53 108.364 7.53H97.3837V12.03H104.314C104.824 12.03 105.199 12 105.439 11.94C105.679 11.85 105.799 11.64 105.799 11.31H106.609V16.08H105.709C105.799 15.75 105.679 15.555 105.349 15.495C105.019 15.405 104.554 15.36 103.954 15.36H97.3837V20.67H108.904C109.264 20.67 109.564 20.595 109.804 20.445C110.044 20.265 110.164 20.04 110.164 19.77H110.974V24.495H110.164C110.164 24.225 110.044 24.075 109.804 24.045C109.564 24.015 109.264 24 108.904 24H92.3887V23.19C92.5387 23.19 92.6887 23.145 92.8387 23.055C92.9887 22.935 93.0637 22.755 93.0637 22.515V5.685C93.0637 5.445 92.9887 5.28 92.8387 5.19C92.6887 5.07 92.5387 5.01 92.3887 5.01V4.2H108.364C109.294 4.2 109.759 3.93 109.759 3.39H110.569V8.385H109.759ZM118.699 17.115C118.699 17.235 118.684 17.37 118.654 17.52C118.654 17.64 118.654 17.775 118.654 17.925C118.654 18.375 118.939 18.795 119.509 19.185C120.079 19.545 120.754 19.86 121.534 20.13C122.344 20.37 123.139 20.565 123.919 20.715C124.729 20.865 125.359 20.94 125.809 20.94C126.229 20.94 126.739 20.91 127.339 20.85C127.969 20.79 128.584 20.67 129.184 20.49C129.784 20.28 130.294 20.01 130.714 19.68C131.134 19.32 131.344 18.855 131.344 18.285C131.344 17.625 130.969 17.145 130.219 16.845C129.499 16.545 128.584 16.32 127.474 16.17C126.364 15.99 125.164 15.825 123.874 15.675C122.584 15.495 121.384 15.225 120.274 14.865C119.164 14.475 118.234 13.935 117.484 13.245C116.764 12.525 116.404 11.52 116.404 10.23C116.404 8.31 117.199 6.78 118.789 5.64C120.379 4.5 122.614 3.93 125.494 3.93C126.904 3.93 128.104 4.05 129.094 4.29C130.114 4.5 130.969 4.74 131.659 5.01C132.349 5.28 132.904 5.535 133.324 5.775C133.774 5.985 134.104 6.09 134.314 6.09C134.554 6.09 134.734 6.06 134.854 6C134.974 5.91 135.124 5.82 135.304 5.73L135.799 6.225L133.549 10.455L132.739 10.185C132.709 10.005 132.679 9.825 132.649 9.645C132.619 9.465 132.484 9.285 132.244 9.105C131.644 8.595 130.714 8.16 129.454 7.8C128.194 7.44 126.784 7.26 125.224 7.26C124.624 7.26 124.054 7.305 123.514 7.395C122.974 7.455 122.494 7.575 122.074 7.755C121.654 7.935 121.324 8.175 121.084 8.475C120.844 8.745 120.724 9.09 120.724 9.51C120.724 10.17 121.084 10.65 121.804 10.95C122.554 11.22 123.484 11.445 124.594 11.625C125.704 11.775 126.904 11.94 128.194 12.12C129.484 12.27 130.684 12.54 131.794 12.93C132.904 13.32 133.819 13.89 134.539 14.64C135.289 15.39 135.664 16.425 135.664 17.745C135.664 19.065 135.334 20.145 134.674 20.985C134.044 21.825 133.249 22.485 132.289 22.965C131.329 23.445 130.264 23.76 129.094 23.91C127.954 24.06 126.874 24.135 125.854 24.135C124.834 24.135 123.814 24.045 122.794 23.865C121.804 23.655 120.889 23.43 120.049 23.19C119.239 22.92 118.549 22.68 117.979 22.47C117.409 22.23 117.064 22.11 116.944 22.11C116.734 22.11 116.554 22.2 116.404 22.38L115.774 21.93L117.844 16.89L118.699 17.115ZM183.498 5.01C182.838 5.01 182.508 5.235 182.508 5.685V15.99C182.508 17.43 183.033 18.585 184.083 19.455C185.133 20.325 186.738 20.76 188.898 20.76C191.058 20.76 192.663 20.325 193.713 19.455C194.763 18.585 195.288 17.43 195.288 15.99V5.685C195.288 5.235 194.913 5.01 194.163 5.01V4.2H200.418V5.01C199.758 5.01 199.428 5.235 199.428 5.685V17.07C199.428 18 199.218 18.9 198.798 19.77C198.378 20.61 197.733 21.36 196.863 22.02C196.023 22.68 194.928 23.205 193.578 23.595C192.258 23.955 190.698 24.135 188.898 24.135C187.098 24.135 185.523 23.955 184.173 23.595C182.853 23.205 181.758 22.68 180.888 22.02C180.048 21.36 179.418 20.61 178.998 19.77C178.578 18.9 178.368 18 178.368 17.07V5.685C178.368 5.445 178.278 5.28 178.098 5.19C177.918 5.07 177.573 5.01 177.063 5.01V4.2H183.498V5.01ZM220.263 12.03C220.983 12.03 221.658 11.88 222.288 11.58C222.918 11.28 223.233 10.665 223.233 9.735C223.233 9.255 223.143 8.88 222.963 8.61C222.783 8.31 222.558 8.085 222.288 7.935C222.018 7.755 221.703 7.65 221.343 7.62C220.983 7.56 220.623 7.53 220.263 7.53H212.253V12.03H220.263ZM220.173 20.67C221.553 20.67 222.498 20.445 223.008 19.995C223.518 19.545 223.773 18.915 223.773 18.105C223.773 17.175 223.443 16.485 222.783 16.035C222.123 15.585 221.013 15.36 219.453 15.36H212.253V20.67H220.173ZM207.933 5.685C207.933 5.445 207.813 5.28 207.573 5.19C207.363 5.07 207.138 5.01 206.898 5.01V4.2H220.893C222.033 4.2 223.008 4.335 223.818 4.605C224.658 4.875 225.348 5.25 225.888 5.73C226.458 6.18 226.878 6.705 227.148 7.305C227.418 7.905 227.553 8.535 227.553 9.195C227.553 9.735 227.463 10.245 227.283 10.725C227.103 11.175 226.863 11.595 226.563 11.985C226.293 12.345 225.978 12.675 225.618 12.975C225.288 13.275 224.943 13.515 224.583 13.695V13.74C225.003 13.92 225.423 14.16 225.843 14.46C226.263 14.76 226.638 15.12 226.968 15.54C227.298 15.96 227.568 16.44 227.778 16.98C227.988 17.52 228.093 18.105 228.093 18.735C228.093 19.455 227.958 20.13 227.688 20.76C227.418 21.39 226.983 21.945 226.383 22.425C225.813 22.905 225.048 23.295 224.088 23.595C223.158 23.865 222.033 24 220.713 24H206.898V23.19C207.138 23.19 207.363 23.145 207.573 23.055C207.813 22.935 207.933 22.755 207.933 22.515V5.685Z" fill="#DDDDDD"/>
</svg>
