<svg width="49" height="50" viewBox="0 0 49 50" fill="none" xmlns="http://www.w3.org/2000/svg">
<g id="google-icon" clip-path="url(#clip0_1_2521)">
<g id="Group">
<path id="Vector" d="M48.8366 25.495C48.8366 23.4533 48.6708 21.9635 48.3118 20.4185H24.9705V29.6334H38.6713C38.3952 31.9235 36.9035 35.3723 33.5887 37.6897L33.5423 37.9982L40.9224 43.7087L41.4337 43.7597C46.1295 39.428 48.8366 33.0546 48.8366 25.495Z" fill="#4285F4"/>
<path id="Vector_2" d="M24.9706 49.7745C31.6828 49.7745 37.3179 47.5672 41.4338 43.7599L33.5889 37.6899C31.4896 39.1522 28.672 40.173 24.9706 40.173C18.3964 40.173 12.8166 35.8415 10.8276 29.8545L10.536 29.8792L2.86208 35.8111L2.76172 36.0897C6.84986 44.2012 15.2472 49.7745 24.9706 49.7745Z" fill="#34A853"/>
<path id="Vector_3" d="M10.8274 29.8546C10.3026 28.3096 9.99888 26.654 9.99888 24.9435C9.99888 23.2329 10.3026 21.5775 10.7998 20.0325L10.7859 19.7034L3.01582 13.6763L2.7616 13.797C1.07667 17.1631 0.109863 20.943 0.109863 24.9435C0.109863 28.9441 1.07667 32.7238 2.7616 36.0899L10.8274 29.8546Z" fill="#FBBC05"/>
<path id="Vector_4" d="M24.9706 9.71359C29.6388 9.71359 32.7877 11.7277 34.5833 13.4108L41.5995 6.56838C37.2904 2.56783 31.6828 0.112305 24.9706 0.112305C15.2472 0.112305 6.84986 5.68546 2.76172 13.7969L10.7999 20.0323C12.8166 14.0453 18.3964 9.71359 24.9706 9.71359Z" fill="#EB4335"/>
</g>
</g>
<defs>
<clipPath id="clip0_1_2521">
<rect width="48.75" height="49.8333" fill="white" transform="translate(0.109863 0.112305)"/>
</clipPath>
</defs>
</svg>
