<svg width="44" height="53" viewBox="0 0 44 53" fill="none" xmlns="http://www.w3.org/2000/svg">
<path id="Vector" d="M42.9573 40.5527C42.2134 42.3187 41.2944 44.0027 40.2145 45.5785C38.772 47.6769 37.5873 49.1269 36.6793 49.934C35.269 51.2527 33.7539 51.9312 32.1341 51.9695C30.9736 51.9695 29.5713 51.633 27.938 50.949C26.2994 50.2678 24.795 49.934 23.4169 49.934C21.9744 49.934 20.4271 50.2678 18.7696 50.949C17.1148 51.633 15.777 51.9914 14.7535 52.0242C13.2035 52.0926 11.6535 51.3977 10.1089 49.934C9.123 49.0585 7.88998 47.5538 6.40981 45.4253C4.82488 43.1572 3.52201 40.5171 2.50121 37.5158C1.40787 34.2684 0.859863 31.1276 0.859863 28.0853C0.859863 24.6025 1.5986 21.5958 3.07877 19.0787C4.19829 17.102 5.7988 15.4522 7.72611 14.2882C9.6266 13.1273 11.7961 12.5022 14.0121 12.4771C15.2478 12.4771 16.8677 12.8656 18.8744 13.6316C20.881 14.3977 22.1705 14.7861 22.7319 14.7861C23.1564 14.7861 24.5828 14.3293 27.0112 13.4237C29.3027 12.5838 31.2368 12.2363 32.8218 12.3731C37.1199 12.726 40.3462 14.4496 42.4925 17.5576C38.6511 19.9296 36.7519 23.2482 36.7895 27.508C36.8217 30.8266 38.0064 33.5871 40.3274 35.7786C41.3535 36.7786 42.5507 37.5788 43.8599 38.1396C43.5751 38.9795 43.2743 39.7812 42.9573 40.5527ZM33.1065 1.07118C33.1065 3.67027 32.1717 6.09973 30.3154 8.34589C28.0696 11.0161 25.3565 12.5619 22.4149 12.3184C22.3765 11.9916 22.3576 11.6626 22.3585 11.3335C22.3585 8.83561 23.4223 6.16539 25.3215 3.97942C26.2671 2.87412 27.4706 1.95213 28.9293 1.21892C30.3853 0.496644 31.7607 0.0972056 33.0555 0.0288086C33.0904 0.379001 33.1065 0.726459 33.1065 1.07118Z" fill="white"/>
</svg>
