<svg width="95" height="17" viewBox="0 0 95 17" fill="none" xmlns="http://www.w3.org/2000/svg">
<g id="starrating">
<path id="Star 1" d="M7.27943 3.03082C7.57308 2.09776 8.89352 2.09776 9.18717 3.03082L9.86155 5.17356C9.99263 5.59006 10.3788 5.87335 10.8154 5.87335H13.0639C14.0249 5.87335 14.4327 7.09669 13.6639 7.67332L11.7906 9.07845C11.4512 9.333 11.3094 9.77397 11.4368 10.1786L12.1393 12.4107C12.431 13.3377 11.3628 14.094 10.5854 13.5109L8.83334 12.1968C8.47777 11.9301 7.98883 11.9301 7.63326 12.1968L5.88124 13.5109C5.10385 14.094 4.03559 13.3377 4.32733 12.4107L5.02983 10.1786C5.15718 9.77397 5.01536 9.333 4.67599 9.07845L2.80268 7.67332C2.03392 7.09669 2.44173 5.87335 3.40272 5.87335H5.65118C6.08781 5.87335 6.47397 5.59006 6.60505 5.17356L7.27943 3.03082Z" fill="#FFC700" fill-opacity="0.79"/>
<path id="Star 2" d="M26.9137 3.03082C27.2074 2.09776 28.5278 2.09776 28.8215 3.03082L29.4958 5.17356C29.6269 5.59006 30.0131 5.87335 30.4497 5.87335H32.6982C33.6591 5.87335 34.067 7.09669 33.2982 7.67332L31.4249 9.07845C31.0855 9.333 30.9437 9.77397 31.071 10.1786L31.7736 12.4107C32.0653 13.3377 30.997 14.094 30.2196 13.5109L28.4676 12.1968C28.112 11.9301 27.6231 11.9301 27.2675 12.1968L25.5155 13.5109C24.7381 14.094 23.6699 13.3377 23.9616 12.4107L24.6641 10.1786C24.7915 9.77397 24.6496 9.333 24.3103 9.07845L22.437 7.67332C21.6682 7.09669 22.076 5.87335 23.037 5.87335H25.2855C25.7221 5.87335 26.1082 5.59006 26.2393 5.17356L26.9137 3.03082Z" fill="#FFC700" fill-opacity="0.79"/>
<path id="Star 3" d="M46.546 3.03082C46.8397 2.09776 48.1601 2.09776 48.4538 3.03082L49.1281 5.17356C49.2592 5.59006 49.6454 5.87335 50.082 5.87335H52.3305C53.2915 5.87335 53.6993 7.09669 52.9305 7.67332L51.0572 9.07845C50.7178 9.333 50.576 9.77397 50.7034 10.1786L51.4059 12.4107C51.6976 13.3377 50.6294 14.094 49.852 13.5109L48.0999 12.1968C47.7444 11.9301 47.2554 11.9301 46.8999 12.1968L45.1478 13.5109C44.3705 14.094 43.3022 13.3377 43.5939 12.4107L44.2964 10.1786C44.4238 9.77397 44.282 9.333 43.9426 9.07845L42.0693 7.67332C41.3005 7.09669 41.7083 5.87335 42.6693 5.87335H44.9178C45.3544 5.87335 45.7406 5.59006 45.8717 5.17356L46.546 3.03082Z" fill="#FFC700" fill-opacity="0.79"/>
<path id="Star 4" d="M66.1786 3.03082C66.4723 2.09776 67.7927 2.09776 68.0863 3.03082L68.7607 5.17356C68.8918 5.59006 69.278 5.87335 69.7146 5.87335H71.963C72.924 5.87335 73.3318 7.09669 72.5631 7.67332L70.6898 9.07845C70.3504 9.333 70.2086 9.77397 70.3359 10.1786L71.0384 12.4107C71.3302 13.3377 70.2619 14.094 69.4845 13.5109L67.7325 12.1968C67.3769 11.9301 66.888 11.9301 66.5324 12.1968L64.7804 13.5109C64.003 14.094 62.9348 13.3377 63.2265 12.4107L63.929 10.1786C64.0564 9.77397 63.9145 9.333 63.5752 9.07845L61.7019 7.67332C60.9331 7.09669 61.3409 5.87335 62.3019 5.87335H64.5503C64.987 5.87335 65.3731 5.59006 65.5042 5.17356L66.1786 3.03082Z" fill="#FFC700" fill-opacity="0.79"/>
<path id="Star 5" d="M85.8129 3.03082C86.1065 2.09776 87.427 2.09776 87.7206 3.03082L88.395 5.17356C88.5261 5.59006 88.9122 5.87335 89.3489 5.87335H91.5973C92.5583 5.87335 92.9661 7.09669 92.1974 7.67332L90.3241 9.07845C89.9847 9.333 89.8429 9.77397 89.9702 10.1786L90.6727 12.4107C90.9645 13.3377 89.8962 14.094 89.1188 13.5109L87.3668 12.1968C87.0112 11.9301 86.5223 11.9301 86.1667 12.1968L84.4147 13.5109C83.6373 14.094 82.569 13.3377 82.8608 12.4107L83.5633 10.1786C83.6906 9.77397 83.5488 9.333 83.2094 9.07845L81.3361 7.67332C80.5674 7.09669 80.9752 5.87335 81.9362 5.87335H84.1846C84.6213 5.87335 85.0074 5.59006 85.1385 5.17356L85.8129 3.03082Z" fill="#FFC700" fill-opacity="0.79"/>
</g>
</svg>
