<svg width="28" height="28" viewBox="0 0 28 28" fill="none" xmlns="http://www.w3.org/2000/svg">
<g id="u:invoice">
<path id="Vector" d="M15.2545 18.3541H8.53854C8.24167 18.3541 7.95697 18.4685 7.74705 18.6722C7.53714 18.8759 7.41921 19.1521 7.41921 19.4402C7.41921 19.7282 7.53714 20.0044 7.74705 20.2081C7.95697 20.4118 8.24167 20.5262 8.53854 20.5262H15.2545C15.5514 20.5262 15.8361 20.4118 16.046 20.2081C16.2559 20.0044 16.3738 19.7282 16.3738 19.4402C16.3738 19.1521 16.2559 18.8759 16.046 18.6722C15.8361 18.4685 15.5514 18.3541 15.2545 18.3541ZM10.7772 11.8378H13.0158C13.3127 11.8378 13.5974 11.7234 13.8073 11.5197C14.0172 11.316 14.1352 11.0398 14.1352 10.7517C14.1352 10.4637 14.0172 10.1874 13.8073 9.98377C13.5974 9.78009 13.3127 9.66567 13.0158 9.66567H10.7772C10.4803 9.66567 10.1956 9.78009 9.98571 9.98377C9.77579 10.1874 9.65786 10.4637 9.65786 10.7517C9.65786 11.0398 9.77579 11.316 9.98571 11.5197C10.1956 11.7234 10.4803 11.8378 10.7772 11.8378ZM24.2091 14.0099H20.8511V4.23539C20.8519 4.04402 20.8006 3.85584 20.7023 3.68992C20.604 3.52399 20.4623 3.38621 20.2915 3.29052C20.1213 3.1952 19.9283 3.14502 19.7318 3.14502C19.5353 3.14502 19.3423 3.1952 19.1721 3.29052L15.8142 5.15854L12.4562 3.29052C12.286 3.1952 12.093 3.14502 11.8965 3.14502C11.7 3.14502 11.507 3.1952 11.3369 3.29052L7.97887 5.15854L4.62089 3.29052C4.45073 3.1952 4.25771 3.14502 4.06123 3.14502C3.86475 3.14502 3.67173 3.1952 3.50157 3.29052C3.33075 3.38621 3.18903 3.52399 3.09075 3.68992C2.99247 3.85584 2.94112 4.04402 2.9419 4.23539V21.6123C2.9419 22.4764 3.29569 23.3051 3.92543 23.9161C4.55518 24.5272 5.40929 24.8704 6.29988 24.8704H21.9705C22.8611 24.8704 23.7152 24.5272 24.3449 23.9161C24.9747 23.3051 25.3284 22.4764 25.3284 21.6123V15.0959C25.3284 14.8079 25.2105 14.5317 25.0006 14.328C24.7907 14.1243 24.506 14.0099 24.2091 14.0099ZM6.29988 22.6983C6.00302 22.6983 5.71831 22.5839 5.5084 22.3802C5.29849 22.1766 5.18056 21.9003 5.18056 21.6123V6.11427L7.41921 7.35237C7.59197 7.43992 7.78398 7.48564 7.97887 7.48564C8.17377 7.48564 8.36578 7.43992 8.53854 7.35237L11.8965 5.48435L15.2545 7.35237C15.4273 7.43992 15.6193 7.48564 15.8142 7.48564C16.0091 7.48564 16.2011 7.43992 16.3738 7.35237L18.6125 6.11427V21.6123C18.6155 21.9828 18.6836 22.3501 18.814 22.6983H6.29988ZM23.0898 21.6123C23.0898 21.9003 22.9719 22.1766 22.7619 22.3802C22.552 22.5839 22.2673 22.6983 21.9705 22.6983C21.6736 22.6983 21.3889 22.5839 21.179 22.3802C20.9691 22.1766 20.8511 21.9003 20.8511 21.6123V16.182H23.0898V21.6123ZM15.2545 14.0099H8.53854C8.24167 14.0099 7.95697 14.1243 7.74705 14.328C7.53714 14.5317 7.41921 14.8079 7.41921 15.0959C7.41921 15.384 7.53714 15.6602 7.74705 15.8639C7.95697 16.0676 8.24167 16.182 8.53854 16.182H15.2545C15.5514 16.182 15.8361 16.0676 16.046 15.8639C16.2559 15.6602 16.3738 15.384 16.3738 15.0959C16.3738 14.8079 16.2559 14.5317 16.046 14.328C15.8361 14.1243 15.5514 14.0099 15.2545 14.0099Z" fill="#B6B6B6"/>
</g>
</svg>
